<svg id="Calque_1" data-name="Calque 1" xmlns="http://www.w3.org/2000/svg" xmlns:xlink="http://www.w3.org/1999/xlink" viewBox="0 0 1910.59 940.8"><defs><style>.cls-1{fill:url(#Dégradé_sans_nom_21);}.cls-2,.cls-3{fill:#fff;}.cls-2{opacity:0.11;}.cls-3{opacity:0.1;}</style><linearGradient id="Dégradé_sans_nom_21" y1="470.4" x2="1910.59" y2="470.4" gradientUnits="userSpaceOnUse"><stop offset="0" stop-color="#000ac6"/><stop offset="0.15" stop-color="#030bc5"/><stop offset="0.29" stop-color="#0e0dc3"/><stop offset="0.41" stop-color="#2010bf"/><stop offset="0.53" stop-color="#3914ba"/><stop offset="0.65" stop-color="#591ab3"/><stop offset="0.76" stop-color="#8121ab"/><stop offset="0.87" stop-color="#b02aa1"/><stop offset="0.98" stop-color="#e53396"/><stop offset="1" stop-color="#ef3594"/></linearGradient></defs><path class="cls-1" d="M1769,196.62c213.83,238,162,663.71,0,732.33-85.34,36.15-217.38-19.93-267.62-41.26-127.8-54.27-126.29-107.3-239.14-154.72-138.58-58.22-190.09,1.08-335.94-41.25-180.85-52.5-150.46-157.85-321.93-228.14-229.44-94.06-407.29,44-532.14-65.83-58-51-89.2-142.06-62.64-211.45C81.69-2,567.49,2.28,829.5.64,1285.44-2.22,1588.62-4.12,1769,196.62Z"/><ellipse class="cls-2" cx="1750.31" cy="389.07" rx="29.33" ry="43.56" transform="translate(922.17 1979.4) rotate(-75.02)"/><circle class="cls-2" cx="1707.55" cy="607.3" r="27.11"/><ellipse class="cls-2" cx="1455.35" cy="358.57" rx="21.33" ry="49.33" transform="translate(-37.96 487.58) rotate(-18.78)"/><ellipse class="cls-2" cx="1441.68" cy="612.64" rx="52" ry="21.78"/><ellipse class="cls-3" cx="1332.01" cy="470.4" rx="43.39" ry="32"/></svg>