<svg width="34" height="34" viewBox="0 0 34 34" fill="none" xmlns="http://www.w3.org/2000/svg">
<path opacity="0.26" d="M16.638 18.1963H21.3602L26.2713 31.0093H22.5118C21.3051 31.0093 20.2413 30.2175 19.895 29.0618L16.638 18.1963Z" fill="url(#paint0_linear_18_19)"/>
<path opacity="0.25" d="M12.388 31.387H10.3731C8.8082 31.387 7.53981 30.1186 7.53981 28.5537V11.8685H12.388V31.387Z" fill="url(#paint1_linear_18_19)"/>
<path opacity="0.25" d="M7.53981 20.1166H18.4922C21.5541 20.1166 24.0361 17.5688 24.0361 14.426V10.4008C24.0361 7.25803 21.5541 4.71024 18.4922 4.71024H13.0837C10.0218 4.71024 7.53981 7.25803 7.53981 10.4008V20.1166" fill="url(#paint2_linear_18_19)"/>
<path d="M11.9315 30.8046H9.91666C8.35172 30.8046 7.08333 29.5362 7.08333 27.9713V11.2861H11.9315V30.8046Z" fill="url(#paint3_linear_18_19)"/>
<path d="M15.788 18.4167H20.5102L25.4213 30.5685H21.9514C20.5687 30.5685 19.3454 29.6722 18.9289 28.3538L15.788 18.4167Z" fill="url(#paint4_linear_18_19)"/>
<path d="M7.09908 19.3731H18.0515C21.1134 19.3731 23.5954 16.8911 23.5954 13.8292V9.90784C23.5954 6.84595 21.1134 4.36395 18.0515 4.36395H8.14395C7.56689 4.36395 7.09908 4.83177 7.09908 5.40882V19.3731Z" fill="url(#paint5_linear_18_19)"/>
<path d="M11.9472 8.53147V15.0796H17.362C18.6137 15.0796 19.6287 14.0647 19.6287 12.813V10.3574C19.6287 9.10569 18.6137 8.09073 17.362 8.09073H12.388C12.1446 8.09073 11.9472 8.28812 11.9472 8.53147Z" fill="#D4EAF6" stroke="#063D8C" stroke-miterlimit="10"/>
<defs>
<linearGradient id="paint0_linear_18_19" x1="16.638" y1="24.6028" x2="26.2713" y2="24.6028" gradientUnits="userSpaceOnUse">
<stop stop-color="#1B1464"/>
<stop offset="1" stop-color="#29ABE2"/>
</linearGradient>
<linearGradient id="paint1_linear_18_19" x1="7.53981" y1="21.6278" x2="12.388" y2="21.6278" gradientUnits="userSpaceOnUse">
<stop stop-color="#1B1464"/>
<stop offset="1" stop-color="#29ABE2"/>
</linearGradient>
<linearGradient id="paint2_linear_18_19" x1="7.53981" y1="12.4135" x2="24.0361" y2="12.4135" gradientUnits="userSpaceOnUse">
<stop stop-color="#1B1464"/>
<stop offset="1" stop-color="#29ABE2"/>
</linearGradient>
<linearGradient id="paint3_linear_18_19" x1="7.08333" y1="21.0454" x2="11.9315" y2="21.0454" gradientUnits="userSpaceOnUse">
<stop stop-color="#1B1464"/>
<stop offset="1" stop-color="#29ABE2"/>
</linearGradient>
<linearGradient id="paint4_linear_18_19" x1="15.788" y1="24.4926" x2="25.4213" y2="24.4926" gradientUnits="userSpaceOnUse">
<stop stop-color="#1B1464"/>
<stop offset="1" stop-color="#29ABE2"/>
</linearGradient>
<linearGradient id="paint5_linear_18_19" x1="7.09908" y1="11.8685" x2="23.5954" y2="11.8685" gradientUnits="userSpaceOnUse">
<stop stop-color="#1B1464"/>
<stop offset="1" stop-color="#29ABE2"/>
</linearGradient>
</defs>
</svg>
